<?xml version="1.0" encoding="UTF-8" standalone="no"?>
<!DOCTYPE svg PUBLIC "-//W3C//DTD SVG 1.1//EN" "http://www.w3.org/Graphics/SVG/1.1/DTD/svg11.dtd">
<svg width="100%" height="100%" viewBox="0 0 30 30" version="1.1" xmlns="http://www.w3.org/2000/svg" xmlns:xlink="http://www.w3.org/1999/xlink" xml:space="preserve" xmlns:serif="http://www.serif.com/" style="fill-rule:evenodd;clip-rule:evenodd;stroke-linecap:round;stroke-linejoin:round;stroke-miterlimit:1.5;">
    <g transform="matrix(1,0,0,-1,0,29)">
        <path d="M3,28L27,28L30,22L18,1L12,1L0,22L3,28Z" style="fill:rgb(21,21,21);"/>
    </g>
    <g transform="matrix(1,0,0,-1,0,27.7417)">
        <g transform="matrix(6.12323e-17,-0.807692,1,4.94569e-17,-8,24.3571)">
            <path d="M2,23L28,23" style="fill:none;stroke:rgb(230,230,230);stroke-width:2.2px;"/>
        </g>
        <g transform="matrix(0.5,-0.866025,0.866025,0.5,-16.9186,15.2321)">
            <path d="M2,23L28,23" style="fill:none;stroke:rgb(230,230,230);stroke-width:2px;"/>
        </g>
        <g transform="matrix(-0.5,-0.866025,-0.866025,0.5,46.9186,15.2321)">
            <path d="M2,23L28,23" style="fill:none;stroke:rgb(230,230,230);stroke-width:2px;"/>
        </g>
    </g>
</svg>
